<svg width="397" height="378" viewBox="0 0 397 378" fill="none" xmlns="http://www.w3.org/2000/svg">
<path d="M0.316162 38.2623L97.9942 376.621L139.168 376.752L184.084 259.06L151.194 211.22L121.548 285.16L52.6282 37.9133" fill="#8C1515"/>
<path d="M169.21 152.917L188.243 99.9162L214.095 100.679L275.915 284.268L345.157 39.1322L396.916 38.8452L302.058 377.569L258.967 377.481L199.598 206.698" fill="#8C1515"/>
<path d="M213.984 241.12L142.224 142.45V76.6704H133.254V145.44L219.742 263.713L213.984 241.12Z" fill="#8C1515"/>
<path d="M153.995 199.26L208.004 278.985V311.875H199.034V281.975L151.194 211.22" fill="#8C1515"/>
<path d="M255.844 232.15L279.825 196.362L279.764 85.6404H288.734V199.652L258.834 247.1L255.844 232.15Z" fill="#8C1515"/>
<path d="M222.954 169.36L243.884 133.374L243.807 40.7712L234.841 40.7622L234.83 130.491L219.964 154.41L222.954 169.36Z" fill="#8C1515"/>
<path d="M121.294 60.2255C121.294 51.1425 128.656 43.7805 137.739 43.7805C146.821 43.7805 154.184 51.1425 154.184 60.2255C154.184 69.3075 146.821 76.6705 137.739 76.6705C128.656 76.6705 121.294 69.3075 121.294 60.2255Z" stroke="#8C1515" stroke-width="9" stroke-miterlimit="10" stroke-linecap="round" stroke-linejoin="round"/>
<path d="M187.074 326.335C187.074 317.252 194.436 309.89 203.519 309.89C212.601 309.89 219.964 317.252 219.964 326.335C219.964 335.417 212.601 342.78 203.519 342.78C194.436 342.78 187.074 335.417 187.074 326.335Z" stroke="#8C1515" stroke-width="9" stroke-miterlimit="10" stroke-linecap="round" stroke-linejoin="round"/>
<path d="M222.954 21.3554C222.954 12.2724 230.316 4.9104 239.399 4.9104C248.481 4.9104 255.844 12.2724 255.844 21.3554C255.844 30.4374 248.481 37.8004 239.399 37.8004C230.316 37.8004 222.954 30.4374 222.954 21.3554Z" stroke="#8C1515" stroke-width="9" stroke-miterlimit="10" stroke-linecap="round" stroke-linejoin="round"/>
<path d="M267.804 66.2055C267.804 57.1225 275.166 49.7605 284.249 49.7605C293.331 49.7605 300.694 57.1225 300.694 66.2055C300.694 75.2875 293.331 82.6505 284.249 82.6505C275.166 82.6505 267.804 75.2875 267.804 66.2055Z" stroke="#8C1515" stroke-width="9" stroke-miterlimit="10" stroke-linecap="round" stroke-linejoin="round"/>
</svg>
