<svg width="900" height="378" viewBox="0 0 900 378" fill="none" xmlns="http://www.w3.org/2000/svg">
<path d="M0.577148 37.9417L98.2542 376.302L139.429 376.433L184.344 258.74L151.454 210.9L121.808 284.841L52.8892 37.5938" fill="white"/>
<path d="M169.471 152.598L188.503 99.5969L214.355 100.36L276.176 283.949L345.417 38.8129L397.177 38.5259L302.319 377.25L259.227 377.162L199.859 206.379" fill="white"/>
<path d="M659.9 38.8069L660.69 182.141L710.43 231.706L837.48 231.481L837.56 182.982L711.53 183.64L710.91 87.7379L899.33 88.5679L899.86 38.6279" fill="white"/>
<path d="M660.21 204.92L710.42 253.804L711.71 328.222L898.69 327.576L898.95 375.076L660.66 376.054" fill="white"/>
<path d="M631.64 87.9086L631.84 37.8706L491 38.6336C491 38.6336 481.564 39.1186 474.615 41.1076C470.911 42.1686 466.231 43.4836 461.585 45.3246C454.652 48.0736 447.555 51.6956 441.973 54.9816C429.742 62.1806 417.498 77.9396 413.923 82.7116C409.806 88.2086 404.928 98.0686 401.132 116.163C397.335 134.257 405.393 140.177 400.616 157.759C395.839 175.341 392.066 172.948 382.042 186.013C375.723 194.249 367.452 200.192 366.327 206.775C365.133 213.765 370.756 216.127 375.574 219.08C382.491 223.32 387.75 220.899 389.752 226.443C390.815 229.389 388.262 232.304 385.437 234.647C383.348 236.379 380.464 238.685 380.792 241.499C381.141 244.494 384.053 245.71 387.326 246.679C389.784 247.406 396.263 247.561 400.011 247.227C402.301 247.023 403.215 245.879 402.614 246.78C396.634 255.75 383.993 253.217 384.674 258.74C385.355 264.263 394.626 264.837 396.634 273.69C398.642 282.544 389.792 288.755 391.567 297.682C393.343 306.61 402.663 310.717 402.663 310.717L451.214 311.737C451.214 311.737 459.642 313.64 466.096 321.317C472.55 328.994 477.03 342.445 477.03 342.445L475.784 376.038L632.05 377.132L630.88 327.719L525.79 326.898C525.79 326.898 521 313.011 513.018 304.707C509.151 300.685 508.24 300.474 506.493 299.317C504.632 298.085 501.824 295.908 493.476 291.285C483.124 285.552 471.634 272.174 464.607 258.756C458.046 246.226 455.596 233.419 455.596 233.419L582.33 232.926L581.03 185.87L454.912 184.342L454.915 131.953C454.915 131.953 458.33 114.768 468.528 103.862C478.727 92.9556 488.454 91.2656 495.709 88.3276" fill="white"/>
<path d="M403.442 146.28C403.442 146.28 400.372 147.476 396.829 146.551C393.286 145.626 389.957 141.706 389.27 142.581C388.583 143.456 390.979 147.441 394.08 150.051C397.181 152.662 401.675 153.023 401.675 153.023" fill="white"/>
<path d="M214.244 240.8L142.484 142.13V76.3496H133.514V145.12L220.003 263.394L214.244 240.8Z" fill="white"/>
<path d="M154.255 198.94L208.264 278.666V311.556H199.294V281.656L151.454 210.9" fill="white"/>
<path d="M468.394 94.2896H522.21L546.13 112.23H596.96V121.2H543.14L519.224 103.26H468.394V94.2896Z" fill="white"/>
<path d="M453.444 133.16H492.314L510.254 148.11H596.96L620.88 172.03H662.74V181H617.89L593.97 157.08H507.264L489.324 142.13H453.444V133.16Z" fill="white"/>
<path d="M456.434 249.77H605.93L626.86 228.84H662.74V237.81H629.85L608.92 258.74H456.434" fill="white"/>
<path d="M477.364 282.66H614.9L629.85 297.61H662.74V306.58H626.86L611.91 291.63H477.364V282.66Z" fill="white"/>
<path d="M707.59 145.12H806.26L821.21 124.19H845.13V133.16H824.2L809.25 154.09H707.59V145.12Z" fill="white"/>
<path d="M695.63 240.8H725.53L749.45 261.73H809.25L836.16 288.64H860.08V297.61H833.17L806.26 270.7H746.46L722.54 249.77H695.63V240.8Z" fill="white"/>
<path d="M256.104 231.83L280.086 196.043L280.024 85.3198H288.994V199.333L259.094 246.78L256.104 231.83Z" fill="white"/>
<path d="M223.214 169.04L244.144 133.055L244.067 40.4519L235.101 40.4429L235.09 130.171L220.224 154.09L223.214 169.04Z" fill="white"/>
<path d="M121.554 59.905C121.554 50.823 128.917 43.46 137.999 43.46C147.081 43.46 154.444 50.823 154.444 59.905C154.444 68.988 147.081 76.3499 137.999 76.3499C128.917 76.3499 121.554 68.988 121.554 59.905Z" stroke="white" stroke-width="9" stroke-miterlimit="10" stroke-linecap="round" stroke-linejoin="round"/>
<path d="M187.334 326.015C187.334 316.933 194.697 309.57 203.779 309.57C212.861 309.57 220.224 316.933 220.224 326.015C220.224 335.098 212.861 342.46 203.779 342.46C194.697 342.46 187.334 335.098 187.334 326.015Z" stroke="white" stroke-width="9" stroke-miterlimit="10" stroke-linecap="round" stroke-linejoin="round"/>
<path d="M223.214 21.0349C223.214 11.9529 230.577 4.58984 239.659 4.58984C248.741 4.58984 256.104 11.9529 256.104 21.0349C256.104 30.1179 248.741 37.4798 239.659 37.4798C230.577 37.4798 223.214 30.1179 223.214 21.0349Z" stroke="white" stroke-width="9" stroke-miterlimit="10" stroke-linecap="round" stroke-linejoin="round"/>
<path d="M268.064 65.8849C268.064 56.8029 275.427 49.4399 284.509 49.4399C293.591 49.4399 300.954 56.8029 300.954 65.8849C300.954 74.9679 293.591 82.3299 284.509 82.3299C275.427 82.3299 268.064 74.9679 268.064 65.8849Z" stroke="white" stroke-width="9" stroke-miterlimit="10" stroke-linecap="round" stroke-linejoin="round"/>
<path d="M599.95 116.715C599.95 107.633 607.32 100.27 616.4 100.27C625.48 100.27 632.84 107.633 632.84 116.715C632.84 125.798 625.48 133.16 616.4 133.16C607.32 133.16 599.95 125.798 599.95 116.715Z" stroke="white" stroke-width="9" stroke-miterlimit="10" stroke-linecap="round" stroke-linejoin="round"/>
<path d="M848.12 128.675C848.12 119.593 855.49 112.23 864.57 112.23C873.65 112.23 881.01 119.593 881.01 128.675C881.01 137.758 873.65 145.12 864.57 145.12C855.49 145.12 848.12 137.758 848.12 128.675Z" stroke="white" stroke-width="9" stroke-miterlimit="10" stroke-linecap="round" stroke-linejoin="round"/>
<path d="M860.08 293.125C860.08 284.043 867.45 276.68 876.53 276.68C885.61 276.68 892.97 284.043 892.97 293.125C892.97 302.208 885.61 309.57 876.53 309.57C867.45 309.57 860.08 302.208 860.08 293.125Z" stroke="white" stroke-width="9" stroke-miterlimit="10" stroke-linecap="round" stroke-linejoin="round"/>
</svg>
