<svg width="900" height="378" viewBox="0 0 900 378" fill="none" xmlns="http://www.w3.org/2000/svg">
<path d="M0.717041 38.3519L98.394 376.712L139.569 376.843L184.484 259.15L151.594 211.31L121.948 285.251L53.0291 38.0039" fill="black"/>
<path d="M169.611 153.008L188.643 100.007L214.495 100.77L276.316 284.359L345.557 39.223L397.317 38.936L302.459 377.66L259.367 377.572L199.999 206.789" fill="black"/>
<path d="M660.04 39.2168L660.83 182.551L710.57 232.116L837.62 231.891L837.7 183.392L711.67 184.05L711.05 88.1478L899.47 88.9778L900 39.0378" fill="black"/>
<path d="M660.35 205.33L710.56 254.214L711.85 328.632L898.83 327.986L899.09 375.486L660.8 376.464" fill="black"/>
<path d="M631.78 88.319L631.98 38.281L491.14 39.044C491.14 39.044 481.704 39.529 474.755 41.518C471.051 42.579 466.371 43.894 461.725 45.735C454.792 48.484 447.695 52.106 442.113 55.392C429.882 62.591 417.638 78.35 414.063 83.122C409.946 88.619 405.068 98.479 401.272 116.573C397.475 134.667 405.533 140.587 400.756 158.169C395.979 175.751 392.206 173.358 382.182 186.423C375.863 194.659 367.592 200.602 366.467 207.185C365.273 214.175 370.896 216.537 375.714 219.49C382.631 223.73 387.89 221.309 389.892 226.853C390.955 229.799 388.402 232.714 385.577 235.057C383.488 236.789 380.604 239.095 380.932 241.909C381.281 244.904 384.193 246.12 387.466 247.089C389.924 247.816 396.403 247.971 400.151 247.637C402.441 247.433 403.355 246.289 402.754 247.19C396.774 256.16 384.133 253.627 384.814 259.15C385.495 264.673 394.766 265.247 396.774 274.1C398.782 282.954 389.932 289.165 391.707 298.092C393.483 307.02 402.803 311.127 402.803 311.127L451.354 312.147C451.354 312.147 459.782 314.05 466.236 321.727C472.69 329.404 477.17 342.855 477.17 342.855L475.924 376.448L632.19 377.542L631.02 328.129L525.93 327.308C525.93 327.308 521.14 313.421 513.158 305.117C509.291 301.095 508.38 300.884 506.633 299.727C504.772 298.495 501.964 296.318 493.616 291.695C483.264 285.962 471.774 272.584 464.747 259.166C458.186 246.636 455.736 233.829 455.736 233.829L582.47 233.336L581.17 186.28L455.052 184.752L455.055 132.363C455.055 132.363 458.47 115.178 468.668 104.272C478.867 93.366 488.594 91.676 495.849 88.738" fill="black"/>
<path d="M403.582 146.69C403.582 146.69 400.512 147.886 396.969 146.961C393.426 146.036 390.097 142.116 389.41 142.991C388.723 143.866 391.119 147.851 394.22 150.461C397.321 153.072 401.815 153.433 401.815 153.433" fill="black"/>
<path d="M214.384 241.21L142.624 142.54V76.7598H133.654V145.53L220.143 263.804L214.384 241.21Z" fill="black"/>
<path d="M154.395 199.35L208.404 279.076V311.966H199.434V282.066L151.594 211.31" fill="black"/>
<path d="M468.534 94.7H522.35L546.27 112.64H597.1V121.61H543.28L519.364 103.67H468.534V94.7Z" fill="black"/>
<path d="M453.584 133.57H492.454L510.394 148.52H597.1L621.02 172.44H662.88V181.41H618.03L594.11 157.49H507.404L489.464 142.54H453.584V133.57Z" fill="black"/>
<path d="M456.574 250.18H606.07L627 229.25H662.88V238.22H629.99L609.06 259.15H456.574" fill="black"/>
<path d="M477.504 283.07H615.04L629.99 298.02H662.88V306.99H627L612.05 292.04H477.504V283.07Z" fill="black"/>
<path d="M707.73 145.53H806.4L821.35 124.6H845.27V133.57H824.34L809.39 154.5H707.73V145.53Z" fill="black"/>
<path d="M695.77 241.21H725.67L749.59 262.14H809.39L836.3 289.05H860.22V298.02H833.31L806.4 271.11H746.6L722.68 250.18H695.77V241.21Z" fill="black"/>
<path d="M256.244 232.24L280.226 196.453L280.164 85.73H289.134V199.743L259.234 247.19L256.244 232.24Z" fill="black"/>
<path d="M223.354 169.45L244.284 133.465L244.207 40.862L235.241 40.853L235.23 130.581L220.364 154.5L223.354 169.45Z" fill="black"/>
<path d="M121.694 60.3151C121.694 51.2331 129.057 43.8701 138.139 43.8701C147.221 43.8701 154.584 51.2331 154.584 60.3151C154.584 69.3981 147.221 76.7601 138.139 76.7601C129.057 76.7601 121.694 69.3981 121.694 60.3151Z" stroke="black" stroke-width="9" stroke-miterlimit="10" stroke-linecap="round" stroke-linejoin="round"/>
<path d="M187.474 326.425C187.474 317.343 194.837 309.98 203.919 309.98C213.001 309.98 220.364 317.343 220.364 326.425C220.364 335.508 213.001 342.87 203.919 342.87C194.837 342.87 187.474 335.508 187.474 326.425Z" stroke="black" stroke-width="9" stroke-miterlimit="10" stroke-linecap="round" stroke-linejoin="round"/>
<path d="M223.354 21.445C223.354 12.363 230.717 5 239.799 5C248.881 5 256.244 12.363 256.244 21.445C256.244 30.528 248.881 37.89 239.799 37.89C230.717 37.89 223.354 30.528 223.354 21.445Z" stroke="black" stroke-width="9" stroke-miterlimit="10" stroke-linecap="round" stroke-linejoin="round"/>
<path d="M268.204 66.2951C268.204 57.2131 275.567 49.8501 284.649 49.8501C293.731 49.8501 301.094 57.2131 301.094 66.2951C301.094 75.3781 293.731 82.7401 284.649 82.7401C275.567 82.7401 268.204 75.3781 268.204 66.2951Z" stroke="black" stroke-width="9" stroke-miterlimit="10" stroke-linecap="round" stroke-linejoin="round"/>
<path d="M600.09 117.125C600.09 108.043 607.46 100.68 616.54 100.68C625.62 100.68 632.98 108.043 632.98 117.125C632.98 126.208 625.62 133.57 616.54 133.57C607.46 133.57 600.09 126.208 600.09 117.125Z" stroke="black" stroke-width="9" stroke-miterlimit="10" stroke-linecap="round" stroke-linejoin="round"/>
<path d="M848.26 129.085C848.26 120.003 855.63 112.64 864.71 112.64C873.79 112.64 881.15 120.003 881.15 129.085C881.15 138.168 873.79 145.53 864.71 145.53C855.63 145.53 848.26 138.168 848.26 129.085Z" stroke="black" stroke-width="9" stroke-miterlimit="10" stroke-linecap="round" stroke-linejoin="round"/>
<path d="M860.22 293.535C860.22 284.453 867.59 277.09 876.67 277.09C885.75 277.09 893.11 284.453 893.11 293.535C893.11 302.618 885.75 309.98 876.67 309.98C867.59 309.98 860.22 302.618 860.22 293.535Z" stroke="black" stroke-width="9" stroke-miterlimit="10" stroke-linecap="round" stroke-linejoin="round"/>
</svg>
