<svg width="900" height="378" viewBox="0 0 900 378" fill="none" xmlns="http://www.w3.org/2000/svg">
<path d="M0.316162 38.2623L97.9942 376.621L139.168 376.752L184.084 259.06L151.194 211.22L121.548 285.16L52.6282 37.9133" fill="#8C1515"/>
<path d="M169.21 152.917L188.243 99.9162L214.095 100.679L275.915 284.268L345.157 39.1322L396.916 38.8452L302.058 377.569L258.967 377.481L199.598 206.698" fill="#8C1515"/>
<path d="M659.64 39.1263L660.43 182.46L710.17 232.025L837.22 231.8L837.3 183.301L711.27 183.959L710.65 88.0583L899.07 88.8873L899.59 38.9473" fill="#8C1515"/>
<path d="M659.95 205.24L710.15 254.123L711.45 328.541L898.43 327.896L898.69 375.395L660.4 376.373" fill="#8C1515"/>
<path d="M631.38 88.2284L631.58 38.1914L490.74 38.9534C490.74 38.9534 481.304 39.4384 474.354 41.4284C470.651 42.4884 465.971 43.8034 461.325 45.6454C454.391 48.3934 447.295 52.0154 441.712 55.3014C429.482 62.5004 417.237 78.2604 413.663 83.0314C409.545 88.5284 404.667 98.3884 400.871 116.482C397.075 134.576 405.132 140.496 400.355 158.078C395.578 175.661 391.805 173.267 381.782 186.332C375.463 194.569 367.191 200.511 366.067 207.094C364.873 214.085 370.495 216.446 375.314 219.399C382.23 223.64 387.49 221.218 389.491 226.762C390.554 229.708 388.001 232.623 385.176 234.966C383.088 236.699 380.204 239.005 380.532 241.818C380.881 244.814 383.792 246.029 387.066 246.998C389.523 247.725 396.002 247.88 399.751 247.546C402.04 247.342 402.954 246.198 402.354 247.1C396.374 256.07 383.733 253.537 384.414 259.06C385.094 264.583 394.365 265.156 396.374 274.01C398.382 282.863 389.531 289.074 391.307 298.002C393.082 306.929 402.402 311.036 402.402 311.036L450.954 312.056C450.954 312.056 459.381 313.96 465.835 321.637C472.289 329.314 476.77 342.764 476.77 342.764L475.523 376.357L631.78 377.451L630.62 328.039L525.529 327.218C525.529 327.218 520.743 313.33 512.758 305.026C508.891 301.004 507.979 300.794 506.232 299.636C504.372 298.404 501.564 296.227 493.216 291.604C482.863 285.872 471.373 272.493 464.347 259.075C457.786 246.546 455.336 233.738 455.336 233.738L582.07 233.245L580.77 186.189L454.652 184.661L454.655 132.272C454.655 132.272 458.069 115.088 468.268 104.181C478.466 93.2754 488.194 91.5854 495.448 88.6484" fill="#8C1515"/>
<path d="M403.182 146.599C403.182 146.599 400.111 147.795 396.568 146.87C393.025 145.945 389.697 142.025 389.009 142.9C388.322 143.775 390.718 147.76 393.819 150.37C396.921 152.981 401.415 153.342 401.415 153.342" fill="#8C1515"/>
<path d="M213.984 241.12L142.224 142.45V76.6704H133.254V145.44L219.742 263.713L213.984 241.12Z" fill="#8C1515"/>
<path d="M153.995 199.26L208.004 278.985V311.875H199.034V281.975L151.194 211.22" fill="#8C1515"/>
<path d="M468.134 94.6104H521.954L545.874 112.55H596.7V121.52H542.884L518.964 103.58H468.134V94.6104Z" fill="#8C1515"/>
<path d="M453.184 133.48H492.054L509.994 148.43H596.7L620.62 172.35H662.48V181.32H617.63L593.71 157.4H507.004L489.064 142.45H453.184V133.48Z" fill="#8C1515"/>
<path d="M456.174 250.09H605.67L626.6 229.16H662.48V238.13H629.59L608.66 259.06H456.174" fill="#8C1515"/>
<path d="M477.104 282.98H614.64L629.59 297.93H662.48V306.9H626.6L611.65 291.95H477.104V282.98Z" fill="#8C1515"/>
<path d="M707.33 145.44H806L820.95 124.51H844.87V133.48H823.94L808.99 154.41H707.33V145.44Z" fill="#8C1515"/>
<path d="M695.37 241.12H725.27L749.19 262.05H808.99L835.9 288.96H859.82V297.93H832.91L806 271.02H746.2L722.28 250.09H695.37V241.12Z" fill="#8C1515"/>
<path d="M255.844 232.15L279.825 196.362L279.764 85.6404H288.734V199.652L258.834 247.1L255.844 232.15Z" fill="#8C1515"/>
<path d="M222.954 169.36L243.884 133.374L243.807 40.7712L234.841 40.7622L234.83 130.491L219.964 154.41L222.954 169.36Z" fill="#8C1515"/>
<path d="M121.294 60.2255C121.294 51.1425 128.656 43.7805 137.739 43.7805C146.821 43.7805 154.184 51.1425 154.184 60.2255C154.184 69.3075 146.821 76.6705 137.739 76.6705C128.656 76.6705 121.294 69.3075 121.294 60.2255Z" stroke="#8C1515" stroke-width="9" stroke-miterlimit="10" stroke-linecap="round" stroke-linejoin="round"/>
<path d="M187.074 326.335C187.074 317.252 194.436 309.89 203.519 309.89C212.601 309.89 219.964 317.252 219.964 326.335C219.964 335.417 212.601 342.78 203.519 342.78C194.436 342.78 187.074 335.417 187.074 326.335Z" stroke="#8C1515" stroke-width="9" stroke-miterlimit="10" stroke-linecap="round" stroke-linejoin="round"/>
<path d="M222.954 21.3554C222.954 12.2724 230.316 4.9104 239.399 4.9104C248.481 4.9104 255.844 12.2724 255.844 21.3554C255.844 30.4374 248.481 37.8004 239.399 37.8004C230.316 37.8004 222.954 30.4374 222.954 21.3554Z" stroke="#8C1515" stroke-width="9" stroke-miterlimit="10" stroke-linecap="round" stroke-linejoin="round"/>
<path d="M267.804 66.2055C267.804 57.1225 275.166 49.7605 284.249 49.7605C293.331 49.7605 300.694 57.1225 300.694 66.2055C300.694 75.2875 293.331 82.6505 284.249 82.6505C275.166 82.6505 267.804 75.2875 267.804 66.2055Z" stroke="#8C1515" stroke-width="9" stroke-miterlimit="10" stroke-linecap="round" stroke-linejoin="round"/>
<path d="M599.69 117.035C599.69 107.952 607.06 100.59 616.14 100.59C625.22 100.59 632.58 107.952 632.58 117.035C632.58 126.117 625.22 133.48 616.14 133.48C607.06 133.48 599.69 126.117 599.69 117.035Z" stroke="#8C1515" stroke-width="9" stroke-miterlimit="10" stroke-linecap="round" stroke-linejoin="round"/>
<path d="M847.86 128.995C847.86 119.912 855.23 112.55 864.31 112.55C873.39 112.55 880.75 119.912 880.75 128.995C880.75 138.077 873.39 145.44 864.31 145.44C855.23 145.44 847.86 138.077 847.86 128.995Z" stroke="#8C1515" stroke-width="9" stroke-miterlimit="10" stroke-linecap="round" stroke-linejoin="round"/>
<path d="M859.82 293.445C859.82 284.362 867.19 277 876.27 277C885.35 277 892.71 284.362 892.71 293.445C892.71 302.527 885.35 309.891 876.27 309.891C867.19 309.891 859.82 302.527 859.82 293.445Z" stroke="#8C1515" stroke-width="9" stroke-miterlimit="10" stroke-linecap="round" stroke-linejoin="round"/>
</svg>
